<svg version="1.2" baseProfile="tiny" xmlns="http://www.w3.org/2000/svg" width="19" height="27" viewBox="0 0 19 27" overflow="visible"><path d="M18 23v-2h-1v-1h-1v-1h-1v-1h-1v-1h-2v-4h1v-1h1V4h-1V3h-1V2h-1V1H9V0H3v1H1v1H0v3h1v6h1v3h1v1h1v1h1v2H4v1H3v4H2v4h17v-4z" id="outline"/><g id="skin"><path fill="#FEC59E" d="M17 23v-2h-1v-1h-1v-1h-1v-1h-3v-6h2V8h-1V4h-1V3H9V2H3v1H2v8h1v3h1v1h1v1h1v3H4v4H3v4h9v-1h1v1h5v-4z"/><path fill="#FEAA72" d="M12 4h-1V3H9V2H3v1H2v3h1V5h4v1h3v8H9v1H5v1h1v3h1v-1h1v-1h1v-1h1v-1h1V9h1zM4 8v4h2v-1H5V8z"/><path fill="#CF8E54" d="M11 9h1v2h-1zM6 16v2h1v-1h1v-1zM12 25h1v1h-1zM11 26h1v1h-1z"/><g fill="#FEAA72"><path d="M12 18h2v1h-2zM4 19h2v1H4zM14 19h1v1h-1zM15 20h1v1h-1zM16 21h1v2h-1zM17 23h1v4h-1zM13 26h1v1h-1z"/></g></g><g id="shirt"><path d="M17 23v-2h-1v-1h-1v-1h-1v-1h-2v-1h-2v1H8v1H4v4H3v4h15v-4z"/><path fill="#fff" d="M6 22h3v1H6z"/></g><g id="jacket"><g fill="#6E6E6E"><path d="M17 23v-2h-1v-1h-1v-1h-1v-1h-4v1H9v8h9v-4zM4 23H3v4h2v-5h1v-3H4z"/></g><g fill="#525252"><path d="M3 23h1v4H3zM17 23h1v4h-1zM16 21h1v2h-1zM15 20h1v1h-1zM12 25h1v1h-1zM10 18h2v1h-2zM14 19v-1h-1v1h-1v1h3v-1zM10 19H9v8h1v-6h2v-1h-2zM4 19v4h1v-1h1v-1H5v-1h1v-1z"/></g></g><path d="M12 26h1v1h-1z" id="arm"/><g fill="#F5747A" id="mouth"><path d="M5 13h2v1H5zM7 12h1v1H7z"/></g><g id="eyes"><path fill="#fff" d="M2 8h2v1H2zM7 8h2v1H7z"/><path fill="#80501C" d="M2 7h2v1H2zM6 7h3v1H6z"/></g><g id="eyeballs" fill="#452714"><path d="M3 8h1v1H3zM8 8h1v1H8z"/></g><g id="hair"><path fill="#80501C" d="M12 4V3h-1V2H9V1H3v1H2v1H1v2h2V4h4v1h2v1h1v4h1V9h1V8h1V4z"/><path fill="#452714" d="M12 4V3h-1V2H9V1H3v1H2v1H1v2h1V4h1V3h4v1h2v1h1v1h1v3h1V8h1V4z"/></g></svg>